<svg xmlns="http://www.w3.org/2000/svg" xmlns:xlink="http://www.w3.org/1999/xlink" width="48" zoomAndPan="magnify" viewBox="0 0 36 36.000001" height="48" preserveAspectRatio="xMidYMid meet" version="1.0"><path fill="#4adc67" d="M 17.6875 0.46875 C 16.234375 0.46875 14.804688 0.65625 13.402344 1.035156 C 12 1.410156 10.667969 1.964844 9.414062 2.699219 C 8.15625 3.429688 7.019531 4.3125 6 5.34375 C 4.976562 6.378906 4.109375 7.527344 3.394531 8.792969 C 2.679688 10.058594 2.140625 11.394531 1.78125 12.804688 C 1.417969 14.210938 1.25 15.640625 1.269531 17.09375 C 1.289062 18.546875 1.5 19.972656 1.898438 21.371094 C 2.296875 22.769531 2.871094 24.089844 3.625 25.335938 L 1.308594 32.277344 C 1.269531 32.398438 1.257812 32.519531 1.277344 32.644531 C 1.296875 32.765625 1.34375 32.878906 1.414062 32.980469 C 1.488281 33.085938 1.582031 33.164062 1.695312 33.222656 C 1.804688 33.277344 1.925781 33.308594 2.050781 33.308594 C 2.136719 33.308594 2.21875 33.292969 2.296875 33.265625 L 9.242188 30.953125 C 9.78125 31.277344 10.339844 31.570312 10.914062 31.828125 C 11.488281 32.089844 12.074219 32.316406 12.675781 32.507812 C 13.273438 32.703125 13.882812 32.859375 14.5 32.980469 C 15.121094 33.105469 15.742188 33.191406 16.371094 33.242188 C 17 33.292969 17.628906 33.308594 18.257812 33.285156 C 18.890625 33.265625 19.515625 33.207031 20.140625 33.113281 C 20.761719 33.019531 21.378906 32.890625 21.988281 32.722656 C 22.59375 32.558594 23.191406 32.359375 23.777344 32.125 C 24.363281 31.890625 24.933594 31.625 25.488281 31.328125 C 26.042969 31.027344 26.578125 30.695312 27.09375 30.335938 C 27.613281 29.976562 28.105469 29.585938 28.578125 29.167969 C 29.050781 28.75 29.496094 28.304688 29.917969 27.835938 C 30.335938 27.367188 30.730469 26.875 31.09375 26.359375 C 31.457031 25.84375 31.789062 25.3125 32.09375 24.757812 C 32.394531 24.207031 32.664062 23.636719 32.902344 23.050781 C 33.140625 22.46875 33.34375 21.871094 33.511719 21.265625 C 33.679688 20.65625 33.8125 20.042969 33.910156 19.417969 C 34.007812 18.796875 34.066406 18.171875 34.09375 17.539062 C 34.117188 16.910156 34.105469 16.28125 34.058594 15.652344 C 34.011719 15.023438 33.929688 14.402344 33.8125 13.78125 C 33.691406 13.164062 33.539062 12.550781 33.347656 11.949219 C 33.160156 11.351562 32.933594 10.761719 32.679688 10.1875 C 32.421875 9.609375 32.132812 9.050781 31.808594 8.507812 C 31.488281 7.96875 31.136719 7.445312 30.753906 6.945312 C 30.375 6.441406 29.964844 5.964844 29.527344 5.507812 C 29.089844 5.054688 28.628906 4.628906 28.144531 4.226562 C 27.65625 3.824219 27.148438 3.453125 26.621094 3.109375 C 26.089844 2.765625 25.542969 2.457031 24.980469 2.175781 C 24.414062 1.894531 23.835938 1.648438 23.242188 1.4375 C 22.648438 1.222656 22.046875 1.042969 21.433594 0.902344 C 20.816406 0.757812 20.199219 0.648438 19.570312 0.578125 C 18.945312 0.503906 18.316406 0.46875 17.6875 0.46875 Z M 17.6875 31.742188 C 14.820312 31.742188 12.179688 30.972656 9.757812 29.433594 C 9.632812 29.351562 9.492188 29.3125 9.339844 29.3125 C 9.253906 29.3125 9.171875 29.328125 9.09375 29.351562 L 3.285156 31.289062 L 5.222656 25.480469 C 5.300781 25.246094 5.273438 25.027344 5.140625 24.816406 C 4.851562 24.355469 4.585938 23.882812 4.347656 23.390625 C 4.109375 22.902344 3.898438 22.402344 3.714844 21.886719 C 3.535156 21.375 3.378906 20.855469 3.253906 20.324219 C 3.128906 19.792969 3.03125 19.257812 2.964844 18.71875 C 2.898438 18.179688 2.859375 17.636719 2.855469 17.09375 C 2.847656 16.546875 2.871094 16.003906 2.921875 15.460938 C 2.976562 14.921875 3.058594 14.382812 3.167969 13.851562 C 3.28125 13.316406 3.421875 12.792969 3.589844 12.277344 C 3.761719 11.757812 3.957031 11.25 4.183594 10.757812 C 4.410156 10.261719 4.660156 9.777344 4.9375 9.3125 C 5.214844 8.84375 5.519531 8.390625 5.847656 7.957031 C 6.175781 7.523438 6.527344 7.105469 6.898438 6.710938 C 7.273438 6.316406 7.667969 5.941406 8.082031 5.589844 C 8.496094 5.234375 8.929688 4.90625 9.382812 4.601562 C 9.832031 4.296875 10.296875 4.019531 10.78125 3.765625 C 11.261719 3.511719 11.757812 3.285156 12.261719 3.085938 C 12.769531 2.886719 13.285156 2.714844 13.8125 2.570312 C 14.335938 2.429688 14.867188 2.316406 15.40625 2.230469 C 15.945312 2.148438 16.484375 2.09375 17.027344 2.070312 C 17.570312 2.042969 18.117188 2.050781 18.660156 2.085938 C 19.203125 2.121094 19.742188 2.183594 20.277344 2.28125 C 20.8125 2.375 21.34375 2.5 21.867188 2.652344 C 22.386719 2.804688 22.902344 2.984375 23.402344 3.195312 C 23.90625 3.402344 24.394531 3.640625 24.871094 3.902344 C 25.347656 4.164062 25.808594 4.453125 26.253906 4.769531 C 26.699219 5.082031 27.125 5.417969 27.535156 5.78125 C 27.941406 6.140625 28.328125 6.523438 28.695312 6.925781 C 29.058594 7.328125 29.402344 7.75 29.722656 8.191406 C 30.039062 8.632812 30.335938 9.089844 30.605469 9.5625 C 30.871094 10.035156 31.113281 10.523438 31.332031 11.023438 C 31.546875 11.523438 31.734375 12.035156 31.894531 12.554688 C 32.050781 13.074219 32.183594 13.601562 32.285156 14.136719 C 32.382812 14.671875 32.457031 15.210938 32.5 15.753906 C 32.539062 16.296875 32.550781 16.839844 32.535156 17.382812 C 32.515625 17.929688 32.46875 18.46875 32.390625 19.007812 C 32.3125 19.546875 32.207031 20.082031 32.070312 20.609375 C 31.933594 21.136719 31.769531 21.652344 31.578125 22.164062 C 31.382812 22.671875 31.164062 23.167969 30.917969 23.652344 C 30.667969 24.136719 30.394531 24.609375 30.097656 25.0625 C 29.796875 25.515625 29.472656 25.953125 29.125 26.375 C 28.777344 26.792969 28.410156 27.191406 28.015625 27.570312 C 27.625 27.949219 27.214844 28.304688 26.785156 28.636719 C 26.355469 28.96875 25.90625 29.277344 25.441406 29.5625 C 24.976562 29.847656 24.5 30.105469 24.007812 30.335938 C 23.511719 30.566406 23.007812 30.769531 22.496094 30.945312 C 21.980469 31.121094 21.457031 31.269531 20.925781 31.386719 C 20.394531 31.507812 19.855469 31.59375 19.316406 31.65625 C 18.773438 31.714844 18.230469 31.742188 17.6875 31.742188 Z M 11.433594 16.886719 C 11.433594 17.09375 11.394531 17.292969 11.3125 17.488281 C 11.234375 17.679688 11.121094 17.847656 10.972656 17.992188 C 10.828125 18.140625 10.660156 18.253906 10.46875 18.332031 C 10.277344 18.410156 10.074219 18.453125 9.867188 18.453125 C 9.660156 18.453125 9.460938 18.410156 9.269531 18.332031 C 9.078125 18.253906 8.910156 18.140625 8.761719 17.992188 C 8.617188 17.847656 8.503906 17.679688 8.425781 17.488281 C 8.34375 17.292969 8.304688 17.09375 8.304688 16.886719 C 8.304688 16.679688 8.34375 16.480469 8.425781 16.289062 C 8.503906 16.097656 8.617188 15.929688 8.761719 15.78125 C 8.910156 15.636719 9.078125 15.523438 9.269531 15.441406 C 9.460938 15.363281 9.660156 15.324219 9.867188 15.324219 C 10.074219 15.324219 10.277344 15.363281 10.46875 15.441406 C 10.660156 15.523438 10.828125 15.636719 10.972656 15.78125 C 11.121094 15.929688 11.234375 16.097656 11.3125 16.289062 C 11.394531 16.480469 11.433594 16.679688 11.433594 16.886719 Z M 19.25 16.886719 C 19.25 17.09375 19.210938 17.292969 19.132812 17.488281 C 19.050781 17.679688 18.941406 17.847656 18.792969 17.992188 C 18.644531 18.140625 18.476562 18.253906 18.285156 18.332031 C 18.09375 18.410156 17.894531 18.453125 17.6875 18.453125 C 17.480469 18.453125 17.28125 18.410156 17.089844 18.332031 C 16.898438 18.253906 16.726562 18.140625 16.582031 17.992188 C 16.433594 17.847656 16.320312 17.679688 16.242188 17.488281 C 16.164062 17.292969 16.125 17.09375 16.125 16.886719 C 16.125 16.679688 16.164062 16.480469 16.242188 16.289062 C 16.320312 16.097656 16.433594 15.929688 16.582031 15.78125 C 16.726562 15.636719 16.898438 15.523438 17.089844 15.441406 C 17.28125 15.363281 17.480469 15.324219 17.6875 15.324219 C 17.894531 15.324219 18.09375 15.363281 18.285156 15.441406 C 18.476562 15.523438 18.644531 15.636719 18.792969 15.78125 C 18.941406 15.929688 19.050781 16.097656 19.132812 16.289062 C 19.210938 16.480469 19.25 16.679688 19.25 16.886719 Z M 27.070312 16.886719 C 27.070312 17.09375 27.03125 17.292969 26.949219 17.488281 C 26.871094 17.679688 26.757812 17.847656 26.613281 17.992188 C 26.464844 18.140625 26.296875 18.253906 26.105469 18.332031 C 25.914062 18.410156 25.714844 18.453125 25.503906 18.453125 C 25.296875 18.453125 25.097656 18.410156 24.90625 18.332031 C 24.714844 18.253906 24.546875 18.140625 24.398438 17.992188 C 24.253906 17.847656 24.140625 17.679688 24.0625 17.488281 C 23.980469 17.292969 23.941406 17.09375 23.941406 16.886719 C 23.941406 16.679688 23.980469 16.480469 24.0625 16.289062 C 24.140625 16.097656 24.253906 15.929688 24.398438 15.78125 C 24.546875 15.636719 24.714844 15.523438 24.90625 15.441406 C 25.097656 15.363281 25.296875 15.324219 25.503906 15.324219 C 25.714844 15.324219 25.914062 15.363281 26.105469 15.441406 C 26.296875 15.523438 26.464844 15.636719 26.613281 15.78125 C 26.757812 15.929688 26.871094 16.097656 26.949219 16.289062 C 27.03125 16.480469 27.070312 16.679688 27.070312 16.886719 Z M 27.070312 16.886719 " fill-opacity="1" fill-rule="nonzero"/></svg>