<svg width="54" height="32" viewBox="0 0 54 32" fill="none" xmlns="http://www.w3.org/2000/svg">
<path d="M48.0004 1.06081e-07H17.1054C16.4049 -0.000139636 15.7112 0.137785 15.0641 0.405889C14.4169 0.673993 13.8289 1.06702 13.3337 1.5625L0.78125 14.1142C-0.260417 15.1558 -0.260417 16.8442 0.78125 17.885L13.3337 30.4375C14.3337 31.4375 15.6904 32 17.1046 32H48.0004C50.9462 32 53.3337 29.6125 53.3337 26.6667V5.33333C53.3337 2.3875 50.9462 1.06081e-07 48.0004 1.06081e-07ZM40.9429 21.1717C41.4637 21.6925 41.4637 22.5367 40.9429 23.0575L39.0579 24.9425C38.5371 25.4633 37.6929 25.4633 37.1721 24.9425L32.0004 19.7708L26.8287 24.9425C26.3079 25.4633 25.4637 25.4633 24.9429 24.9425L23.0579 23.0575C22.5371 22.5367 22.5371 21.6925 23.0579 21.1717L28.2296 16L23.0579 10.8283C22.5371 10.3075 22.5371 9.46333 23.0579 8.9425L24.9429 7.0575C25.4637 6.53667 26.3079 6.53667 26.8287 7.0575L32.0004 12.2292L37.1721 7.0575C37.6929 6.53667 38.5371 6.53667 39.0579 7.0575L40.9429 8.9425C41.4637 9.46333 41.4637 10.3075 40.9429 10.8283L35.7712 16L40.9429 21.1717Z" fill="#4ADC67"/>
</svg>
