<svg xmlns="http://www.w3.org/2000/svg" xmlns:xlink="http://www.w3.org/1999/xlink" width="48" zoomAndPan="magnify" viewBox="0 0 36 36.000001" height="48" preserveAspectRatio="xMidYMid meet" version="1.0"><defs><clipPath id="ac1b1ac6fe"><path d="M 0.488281 0 L 35.511719 0 L 35.511719 35.027344 L 0.488281 35.027344 Z M 0.488281 0 " clip-rule="nonzero"/></clipPath></defs><path fill="#4adc67" d="M 19.683594 12.261719 L 19.683594 15.109375 L 23.265625 15.109375 L 22.765625 19.003906 L 19.683594 19.003906 L 19.683594 27.929688 L 15.773438 27.929688 L 15.773438 19.003906 L 12.421875 19.003906 L 12.421875 15.109375 L 15.773438 15.109375 L 15.773438 12.261719 C 15.773438 9.175781 18.265625 7.097656 21.347656 7.097656 C 22.707031 7.097656 23.5625 7.304688 23.5625 7.304688 L 23.5625 10.59375 L 21.347656 10.59375 C 20.433594 10.59375 19.683594 11.347656 19.683594 12.261719 Z M 19.683594 12.261719 " fill-opacity="1" fill-rule="nonzero"/><g clip-path="url(#ac1b1ac6fe)"><path fill="#4adc67" d="M 18 35.027344 C 8.351562 35.027344 0.488281 27.175781 0.488281 17.511719 C 0.488281 7.847656 8.351562 0 18 0 C 27.664062 0 35.511719 7.863281 35.511719 17.511719 C 35.511719 27.164062 27.664062 35.027344 18 35.027344 Z M 18 0.960938 C 8.867188 0.960938 1.445312 8.378906 1.445312 17.511719 C 1.445312 26.648438 8.867188 34.066406 18 34.066406 C 27.132812 34.066406 34.554688 26.648438 34.554688 17.511719 C 34.554688 8.378906 27.132812 0.960938 18 0.960938 Z M 18 0.960938 " fill-opacity="1" fill-rule="nonzero"/></g></svg>