<svg xmlns="http://www.w3.org/2000/svg" xmlns:xlink="http://www.w3.org/1999/xlink" width="48" zoomAndPan="magnify" viewBox="0 0 36 36.000001" height="48" preserveAspectRatio="xMidYMid meet" version="1.0"><defs><clipPath id="c9a0de1e1b"><path d="M 0.488281 0 L 35.511719 0 L 35.511719 35.027344 L 0.488281 35.027344 Z M 0.488281 0 " clip-rule="nonzero"/></clipPath><clipPath id="ae50ddb341"><path d="M 11.65625 10.507812 L 24.0625 10.507812 L 24.0625 24.371094 L 11.65625 24.371094 Z M 11.65625 10.507812 " clip-rule="nonzero"/></clipPath></defs><g clip-path="url(#c9a0de1e1b)"><path fill="#d08205" d="M 18 35.027344 C 8.324219 35.027344 0.488281 27.136719 0.488281 17.511719 C 0.488281 7.890625 8.324219 0 18 0 C 27.675781 0 35.511719 7.835938 35.511719 17.511719 C 35.511719 27.1875 27.621094 35.027344 18 35.027344 Z M 18 1.082031 C 8.917969 1.082031 1.566406 8.433594 1.566406 17.511719 C 1.566406 26.59375 8.917969 33.945312 18 33.945312 C 27.082031 33.945312 34.433594 26.59375 34.433594 17.511719 C 34.433594 8.433594 27.027344 1.082031 18 1.082031 Z M 18 1.082031 " fill-opacity="1" fill-rule="nonzero"/></g><g clip-path="url(#ae50ddb341)"><path fill="#d08205" d="M 21.984375 20.308594 C 21.460938 20.308594 20.996094 20.515625 20.636719 20.84375 L 15.734375 17.953125 C 15.765625 17.792969 15.792969 17.632812 15.792969 17.46875 C 15.792969 17.300781 15.765625 17.140625 15.734375 16.980469 L 20.582031 14.121094 C 20.953125 14.46875 21.441406 14.683594 21.984375 14.683594 C 23.125 14.683594 24.046875 13.75 24.046875 12.59375 C 24.046875 11.4375 23.125 10.507812 21.984375 10.507812 C 20.84375 10.507812 19.921875 11.4375 19.921875 12.59375 C 19.921875 12.761719 19.949219 12.921875 19.984375 13.082031 L 15.132812 15.941406 C 14.761719 15.59375 14.273438 15.378906 13.730469 15.378906 C 12.589844 15.378906 11.667969 16.3125 11.667969 17.46875 C 11.667969 18.625 12.589844 19.554688 13.730469 19.554688 C 14.273438 19.554688 14.761719 19.339844 15.132812 18.992188 L 20.03125 21.886719 C 19.996094 22.035156 19.976562 22.1875 19.976562 22.339844 C 19.976562 23.460938 20.875 24.371094 21.984375 24.371094 C 23.089844 24.371094 23.992188 23.460938 23.992188 22.339844 C 23.992188 21.21875 23.089844 20.308594 21.984375 20.308594 Z M 21.984375 20.308594 " fill-opacity="1" fill-rule="nonzero"/></g></svg>