<svg xmlns="http://www.w3.org/2000/svg" xmlns:xlink="http://www.w3.org/1999/xlink" width="48" zoomAndPan="magnify" viewBox="0 0 36 36.000001" height="48" preserveAspectRatio="xMidYMid meet" version="1.0"><defs><clipPath id="8278ac88c8"><path d="M 0.488281 0 L 35.511719 0 L 35.511719 35.027344 L 0.488281 35.027344 Z M 0.488281 0 " clip-rule="nonzero"/></clipPath></defs><path fill="#d08205" d="M 25.125 10.757812 L 22.144531 24.773438 C 22 25.464844 21.171875 25.777344 20.597656 25.363281 L 13.5 20.082031 L 21.335938 13 C 21.335938 13 21.867188 12.570312 21.71875 12.4375 C 21.554688 12.277344 20.980469 12.628906 20.671875 12.835938 C 20.375 13.042969 11.082031 18.914062 11.082031 18.914062 L 6.386719 17.441406 C 5.855469 17.277344 5.855469 16.554688 6.625 16.230469 L 23.945312 9.5625 C 24.683594 9.191406 25.289062 10.046875 25.125 10.757812 Z M 25.125 10.757812 " fill-opacity="1" fill-rule="nonzero"/><g clip-path="url(#8278ac88c8)"><path fill="#d08205" d="M 18 35.027344 C 8.351562 35.027344 0.488281 27.175781 0.488281 17.511719 C 0.488281 7.863281 8.351562 0 18 0 C 27.664062 0 35.511719 7.863281 35.511719 17.511719 C 35.511719 27.175781 27.664062 35.027344 18 35.027344 Z M 18 0.960938 C 8.867188 0.960938 1.445312 8.378906 1.445312 17.511719 C 1.445312 26.648438 8.867188 34.066406 18 34.066406 C 27.132812 34.066406 34.554688 26.648438 34.554688 17.511719 C 34.554688 8.378906 27.132812 0.960938 18 0.960938 Z M 18 0.960938 " fill-opacity="1" fill-rule="nonzero"/></g></svg>